<svg width="16" height="16" viewBox="0 0 16 16" fill="none" xmlns="http://www.w3.org/2000/svg">
<g clip-path="url(#clip0_1131_53009)">
<path fill-rule="evenodd" clip-rule="evenodd" d="M1.88547 0.511002C2.06045 0.336291 2.27055 0.20076 2.50187 0.113392C2.73318 0.0260236 2.98043 -0.0111874 3.22721 0.00422482C3.47399 0.019637 3.71469 0.0873205 3.93333 0.20279C4.15198 0.318259 4.34359 0.478878 4.49547 0.674002L6.29047 2.98C6.61947 3.403 6.73547 3.954 6.60547 4.474L6.05847 6.664C6.03019 6.77743 6.03172 6.89625 6.06291 7.00891C6.0941 7.12158 6.15389 7.22426 6.23647 7.307L8.69347 9.764C8.77631 9.84676 8.87916 9.90664 8.99202 9.93784C9.10488 9.96903 9.22389 9.97047 9.33747 9.942L11.5265 9.395C11.7831 9.33084 12.0509 9.32586 12.3098 9.38043C12.5686 9.435 12.8116 9.5477 13.0205 9.71L15.3265 11.504C16.1555 12.149 16.2315 13.374 15.4895 14.115L14.4555 15.149C13.7155 15.889 12.6095 16.214 11.5785 15.851C8.93965 14.9225 6.54374 13.4118 4.56847 11.431C2.58776 9.45602 1.07708 7.06046 0.148471 4.422C-0.213529 3.392 0.111471 2.285 0.851471 1.545L1.88547 0.511002Z" fill="#212529"/>
</g>
<defs>
<clipPath id="clip0_1131_53009">
<rect width="16" height="16" fill="white"/>
</clipPath>
</defs>
</svg>
