<svg width="20" height="21" viewBox="0 0 20 21" fill="none" xmlns="http://www.w3.org/2000/svg">
<path fill-rule="evenodd" clip-rule="evenodd" d="M10 0C10.221 0 10.433 0.0894872 10.5893 0.248775C10.7455 0.408063 10.8333 0.624104 10.8333 0.849371V9.34308H19.1667C19.3877 9.34308 19.5996 9.43257 19.7559 9.59186C19.9122 9.75115 20 9.96719 20 10.1925C20 10.4177 19.9122 10.6338 19.7559 10.7931C19.5996 10.9523 19.3877 11.0418 19.1667 11.0418H10.8333V19.5355C10.8333 19.7608 10.7455 19.9768 10.5893 20.1361C10.433 20.2954 10.221 20.3849 10 20.3849C9.77899 20.3849 9.56702 20.2954 9.41074 20.1361C9.25446 19.9768 9.16667 19.7608 9.16667 19.5355V11.0418H0.833333C0.61232 11.0418 0.400358 10.9523 0.244078 10.7931C0.0877975 10.6338 0 10.4177 0 10.1925C0 9.96719 0.0877975 9.75115 0.244078 9.59186C0.400358 9.43257 0.61232 9.34308 0.833333 9.34308H9.16667V0.849371C9.16667 0.624104 9.25446 0.408063 9.41074 0.248775C9.56702 0.0894872 9.77899 0 10 0Z" fill="#FD7F06"/>
</svg>
