<svg width="50" height="50" viewBox="0 0 50 50" fill="none" xmlns="http://www.w3.org/2000/svg">
<path d="M0 25C0 11.1929 11.1929 0 25 0C38.8071 0 50 11.1929 50 25C50 38.8071 38.8071 50 25 50C11.1929 50 0 38.8071 0 25Z" fill="white"/>
<path fill-rule="evenodd" clip-rule="evenodd" d="M28.3562 18.6471C28.4028 18.6936 28.4397 18.7488 28.4649 18.8095C28.4901 18.8702 28.5031 18.9354 28.5031 19.0011C28.5031 19.0669 28.4901 19.132 28.4649 19.1928C28.4397 19.2535 28.4028 19.3087 28.3562 19.3551L22.7092 25.0011L28.3562 30.6471C28.4501 30.741 28.5028 30.8684 28.5028 31.0011C28.5028 31.1339 28.4501 31.2613 28.3562 31.3551C28.2623 31.449 28.135 31.5018 28.0022 31.5018C27.8694 31.5018 27.7421 31.449 27.6482 31.3551L21.6482 25.3551C21.6016 25.3087 21.5647 25.2535 21.5395 25.1928C21.5143 25.132 21.5013 25.0669 21.5013 25.0011C21.5013 24.9354 21.5143 24.8702 21.5395 24.8095C21.5647 24.7488 21.6016 24.6936 21.6482 24.6471L27.6482 18.6471C27.6947 18.6006 27.7498 18.5636 27.8106 18.5384C27.8713 18.5132 27.9364 18.5002 28.0022 18.5002C28.068 18.5002 28.1331 18.5132 28.1938 18.5384C28.2546 18.5636 28.3098 18.6006 28.3562 18.6471Z" fill="black"/>
</svg>
