<!-- Стрелка влево -->
<svg  class="strelka-left" width="17" height="16" viewBox="0 0 17 16" fill="white" xmlns="http://www.w3.org/2000/svg">
<g clip-path="url(#clip0_48_116787)">
<rect width="16" height="16" transform="translate(0.5)" fill="white" fill-opacity="0.01"/>
<path fill-rule="evenodd" clip-rule="evenodd" d="M11.8562 1.64714C11.9028 1.69358 11.9397 1.74876 11.9649 1.8095C11.9902 1.87025 12.0031 1.93537 12.0031 2.00114C12.0031 2.06691 11.9902 2.13203 11.9649 2.19277C11.9397 2.25352 11.9028 2.30869 11.8562 2.35514L6.20924 8.00114L11.8562 13.6471C11.9501 13.741 12.0029 13.8684 12.0029 14.0011C12.0029 14.1339 11.9501 14.2613 11.8562 14.3551C11.7623 14.449 11.635 14.5018 11.5022 14.5018C11.3695 14.5018 11.2421 14.449 11.1482 14.3551L5.14824 8.35514C5.10167 8.30869 5.06473 8.25352 5.03952 8.19277C5.01432 8.13203 5.00134 8.06691 5.00134 8.00114C5.00134 7.93537 5.01432 7.87025 5.03952 7.8095C5.06473 7.74876 5.10167 7.69358 5.14824 7.64714L11.1482 1.64714C11.1947 1.60057 11.2499 1.56363 11.3106 1.53843C11.3713 1.51322 11.4365 1.50024 11.5022 1.50024C11.568 1.50024 11.6331 1.51322 11.6939 1.53843C11.7546 1.56363 11.8098 1.60057 11.8562 1.64714Z" fill="black"/>
</g>
<defs>
<clipPath id="clip0_48_116787">
<rect width="16" height="16" fill="white" transform="translate(0.5)"/>
</clipPath>
</defs>
</svg>

