<!-- Стрелка вправо -->
<svg  class ="" width="17" height="16" viewBox="0 0 17 16" fill="none" xmlns="http://www.w3.org/2000/svg">
<g clip-path="url(#clip0_48_116873)">
<rect width="16" height="16" transform="translate(0.5)" fill="white" fill-opacity="0.01"/>
<path fill-rule="evenodd" clip-rule="evenodd" d="M5.14824 1.64714C5.19468 1.60057 5.24986 1.56363 5.3106 1.53843C5.37135 1.51322 5.43647 1.50024 5.50224 1.50024C5.568 1.50024 5.63312 1.51322 5.69387 1.53843C5.75462 1.56363 5.80979 1.60057 5.85624 1.64714L11.8562 7.64714C11.9028 7.69358 11.9397 7.74876 11.9649 7.8095C11.9902 7.87025 12.0031 7.93537 12.0031 8.00114C12.0031 8.06691 11.9902 8.13203 11.9649 8.19277C11.9397 8.25352 11.9028 8.30869 11.8562 8.35514L5.85624 14.3551C5.76235 14.449 5.63501 14.5018 5.50224 14.5018C5.36946 14.5018 5.24212 14.449 5.14824 14.3551C5.05435 14.2613 5.0016 14.1339 5.0016 14.0011C5.0016 13.8684 5.05435 13.741 5.14824 13.6471L10.7952 8.00114L5.14824 2.35514C5.10167 2.30869 5.06473 2.25352 5.03952 2.19277C5.01432 2.13203 5.00134 2.06691 5.00134 2.00114C5.00134 1.93537 5.01432 1.87025 5.03952 1.8095C5.06473 1.74876 5.10167 1.69358 5.14824 1.64714Z" fill="black"/>
</g>
<defs>
<clipPath id="clip0_48_116873">
<rect width="16" height="16" fill="white" transform="translate(0.5)"/>
</clipPath>
</defs>
</svg>
