<svg width="24" height="23" viewBox="0 0 24 23" fill="none" xmlns="http://www.w3.org/2000/svg">
<path fill-rule="evenodd" clip-rule="evenodd" d="M2.81391 0.73459C3.07511 0.483443 3.38875 0.288618 3.73406 0.163026C4.07936 0.0374342 4.44844 -0.0160566 4.81684 0.00609845C5.18524 0.0282535 5.54454 0.125549 5.87093 0.291536C6.19733 0.457523 6.48336 0.688412 6.71009 0.968903L9.38964 4.28378C9.88077 4.89184 10.0539 5.6839 9.85987 6.4314L9.04331 9.57953C9.0011 9.74258 9.00338 9.91338 9.04993 10.0753C9.09649 10.2373 9.18575 10.3849 9.30903 10.5038L12.9768 14.0358C13.1005 14.1547 13.254 14.2408 13.4225 14.2857C13.591 14.3305 13.7686 14.3326 13.9382 14.2917L17.2059 13.5053C17.589 13.4131 17.9888 13.4059 18.3752 13.4844C18.7615 13.5628 19.1243 13.7248 19.4361 13.9582L22.8785 16.537C24.116 17.4642 24.2295 19.2252 23.1218 20.2903L21.5783 21.7767C20.4736 22.8405 18.8226 23.3077 17.2835 22.7858C13.3443 21.4512 9.76772 19.2795 6.81906 16.4321C3.86228 13.5931 1.60715 10.1494 0.220934 6.35665C-0.319456 4.87603 0.165701 3.28472 1.27036 2.22097L2.81391 0.73459Z" fill="white"/>
</svg>
