<svg width="25" height="19" viewBox="0 0 25 19" fill="none" xmlns="http://www.w3.org/2000/svg">
<path d="M0 3.25C0 2.4212 0.32924 1.62634 0.915291 1.04029C1.50134 0.45424 2.2962 0.125 3.125 0.125H21.875C22.7038 0.125 23.4987 0.45424 24.0847 1.04029C24.6708 1.62634 25 2.4212 25 3.25V15.75C25 16.5788 24.6708 17.3737 24.0847 17.9597C23.4987 18.5458 22.7038 18.875 21.875 18.875H3.125C2.2962 18.875 1.50134 18.5458 0.915291 17.9597C0.32924 17.3737 0 16.5788 0 15.75V3.25ZM3.125 1.6875C2.7106 1.6875 2.31317 1.85212 2.02015 2.14515C1.72712 2.43817 1.5625 2.8356 1.5625 3.25V3.58906L12.5 10.1516L23.4375 3.58906V3.25C23.4375 2.8356 23.2729 2.43817 22.9799 2.14515C22.6868 1.85212 22.2894 1.6875 21.875 1.6875H3.125ZM23.4375 5.41094L16.0812 9.825L23.4375 14.3516V5.41094ZM23.3844 16.1547L14.5719 10.7313L12.5 11.9734L10.4281 10.7313L1.61563 16.1531C1.70442 16.4856 1.90049 16.7795 2.17342 16.9891C2.44635 17.1988 2.78085 17.3125 3.125 17.3125H21.875C22.2189 17.3125 22.5533 17.1991 22.8262 16.9898C23.0991 16.7804 23.2953 16.4869 23.3844 16.1547V16.1547ZM1.5625 14.3516L8.91875 9.825L1.5625 5.41094V14.3516Z" fill="white"/>
</svg>
