<svg width="28" height="20" viewBox="0 0 28 20" fill="none" xmlns="http://www.w3.org/2000/svg">
<path d="M24.098 12.7169C25.0268 13.8615 26.0071 14.9383 26.8401 16.1983C27.2081 16.7583 27.5565 17.336 27.823 17.9858C28.2007 18.9096 27.8586 19.926 27.2024 19.9812L23.1233 19.9789C22.0712 20.0891 21.2319 19.5545 20.5262 18.6465C19.9615 17.9205 19.4385 17.1477 18.8954 16.3971C18.6728 16.0903 18.4398 15.8017 18.1614 15.5735C17.6045 15.1173 17.1212 15.257 16.803 15.99C16.4789 16.7356 16.4053 17.5612 16.3735 18.3921C16.3298 19.6045 16.0395 19.9233 15.0746 19.9788C13.0126 20.1015 11.0557 19.7077 9.23773 18.3948C7.63497 17.2373 6.3921 15.6033 5.31032 13.7535C3.20406 10.1514 1.59109 6.19334 0.141409 2.12436C-0.184902 1.20762 0.0537369 0.715513 0.855117 0.698096C2.18584 0.665467 3.51639 0.667789 4.84868 0.695774C5.38952 0.70576 5.74757 1.09731 5.95641 1.74222C6.67637 3.97666 7.55733 6.10253 8.66312 8.07304C8.9576 8.59766 9.25788 9.12227 9.68548 9.49153C10.1585 9.90037 10.5187 9.76487 10.7412 9.09975C10.8824 8.67801 10.9443 8.22376 10.9761 7.77206C11.0815 6.21807 11.0954 4.66675 10.9105 3.11821C10.797 2.15177 10.3657 1.52613 9.60167 1.34324C9.21179 1.25 9.26984 1.06688 9.45861 0.785997C9.78649 0.301556 10.0949 0 10.7096 0H15.3196C16.0454 0.180794 16.2065 0.592313 16.3059 1.51405L16.3099 7.97748C16.3019 8.3343 16.4511 9.39318 16.9603 9.62936C17.3678 9.79749 17.6364 9.38598 17.881 9.0598C18.9847 7.58117 19.7725 5.83372 20.4763 4.02427C20.7886 3.22864 21.0571 2.40235 21.3174 1.57675C21.5102 0.96412 21.8128 0.66268 22.3595 0.676034L26.7964 0.681027C26.928 0.681027 27.0611 0.683465 27.1885 0.710985C27.9362 0.871807 28.141 1.27775 27.9101 2.19926C27.5463 3.64503 26.8384 4.84986 26.1462 6.06027C25.4063 7.35253 24.6149 8.60056 23.8812 9.90049C23.207 11.0876 23.2605 11.6859 24.098 12.7169Z" fill="white"/>
</svg>
