<svg width="50" height="50" viewBox="0 0 50 50" fill="none" xmlns="http://www.w3.org/2000/svg">
<path d="M0 25C0 11.1929 11.1929 0 25 0C38.8071 0 50 11.1929 50 25C50 38.8071 38.8071 50 25 50C11.1929 50 0 38.8071 0 25Z" fill="white"/>
<path fill-rule="evenodd" clip-rule="evenodd" d="M21.6482 18.6471C21.6947 18.6006 21.7499 18.5636 21.8106 18.5384C21.8713 18.5132 21.9365 18.5002 22.0022 18.5002C22.068 18.5002 22.1331 18.5132 22.1939 18.5384C22.2546 18.5636 22.3098 18.6006 22.3562 18.6471L28.3562 24.6471C28.4028 24.6936 28.4397 24.7488 28.4649 24.8095C28.4902 24.8702 28.5031 24.9354 28.5031 25.0011C28.5031 25.0669 28.4902 25.132 28.4649 25.1928C28.4397 25.2535 28.4028 25.3087 28.3562 25.3551L22.3562 31.3551C22.2623 31.449 22.135 31.5018 22.0022 31.5018C21.8695 31.5018 21.7421 31.449 21.6482 31.3551C21.5543 31.2613 21.5016 31.1339 21.5016 31.0011C21.5016 30.8684 21.5543 30.741 21.6482 30.6471L27.2952 25.0011L21.6482 19.3551C21.6017 19.3087 21.5647 19.2535 21.5395 19.1928C21.5143 19.132 21.5013 19.0669 21.5013 19.0011C21.5013 18.9354 21.5143 18.8702 21.5395 18.8095C21.5647 18.7488 21.6017 18.6936 21.6482 18.6471Z" fill="black"/>
</svg>
