<svg width="55" height="49" viewBox="0 0 50 48" fill="white" xmlns="http://www.w3.org/2000/svg">
<path d="M40.2714 36.5597L40.2714 36.5598L46.5214 42.8098L47.375 43.6634V42.4563V6.25C47.375 5.28859 46.9931 4.36656 46.3133 3.68674C45.6334 3.00692 44.7114 2.625 43.75 2.625H6.25C5.28859 2.625 4.36656 3.00692 3.68674 3.68674C3.00692 4.36656 2.625 5.28859 2.625 6.25V31.25C2.625 32.2114 3.00692 33.1334 3.68674 33.8133C4.36656 34.4931 5.28859 34.875 6.25 34.875H36.2061C36.2062 34.875 36.2062 34.875 36.2063 34.875C37.7311 34.8754 39.1933 35.4814 40.2714 36.5597ZM47.6853 46.9781L47.6848 46.9777L38.7692 38.0621C38.7692 38.0621 38.7692 38.0621 38.7692 38.0621C38.0895 37.3822 37.1677 37.0002 36.2064 37H36.2063H6.25C4.72501 37 3.26247 36.3942 2.18414 35.3159C1.1058 34.2375 0.5 32.775 0.5 31.25V6.25C0.5 4.72501 1.1058 3.26247 2.18414 2.18414C3.26247 1.1058 4.72501 0.5 6.25 0.5H43.75C45.275 0.5 46.7375 1.1058 47.8159 2.18414C48.8942 3.26247 49.5 4.72501 49.5 6.25V46.228C49.5 46.2281 49.5 46.2281 49.5 46.2281C49.4999 46.4383 49.4375 46.6438 49.3207 46.8185C49.2038 46.9933 49.0377 47.1294 48.8434 47.2097C48.6491 47.29 48.4353 47.3109 48.2292 47.2697C48.023 47.2284 47.8337 47.127 47.6853 46.9781ZM13 17.7122L13 17.71C12.9949 16.6917 13.3204 15.6992 13.9277 14.8818C14.535 14.0643 15.3911 13.466 16.3676 13.1769C17.344 12.8877 18.3879 12.9233 19.3423 13.2782C20.252 13.6165 21.0335 14.2274 21.5812 15.0258V15.0352L21.6679 15.1625C23.4444 17.7735 24.0691 22.7422 19.5905 27.3837C19.4423 27.537 19.2393 27.6252 19.0261 27.6288C18.8129 27.6324 18.6071 27.5512 18.4538 27.403C18.3005 27.2548 18.2123 27.0518 18.2087 26.8386C18.2051 26.6254 18.2863 26.4196 18.4345 26.2663L18.4346 26.2662C19.7367 24.9187 20.5414 23.5591 20.977 22.2658L21.4281 20.9261L20.235 21.6842C19.5231 22.1365 18.7029 22.3894 17.86 22.4163C17.017 22.4433 16.1823 22.2434 15.443 21.8375C14.7037 21.4317 14.087 20.8347 13.6572 20.109C13.2275 19.3833 13.0005 18.5556 13 17.7122ZM25.5 17.7122L25.5 17.71C25.4949 16.6917 25.8204 15.6992 26.4277 14.8818C27.035 14.0643 27.8911 13.466 28.8676 13.1769C29.844 12.8877 30.8879 12.9233 31.8423 13.2782C32.752 13.6165 33.5336 14.2274 34.0812 15.0258V15.0352L34.1679 15.1625C35.9444 17.7735 36.5691 22.7422 32.0905 27.3837C31.9423 27.537 31.7393 27.6252 31.5261 27.6288C31.3129 27.6324 31.1071 27.5512 30.9538 27.403C30.8005 27.2548 30.7123 27.0518 30.7087 26.8386C30.7051 26.6254 30.7863 26.4196 30.9345 26.2663L30.9346 26.2662C32.2367 24.9187 33.0414 23.5591 33.477 22.2658L33.9281 20.9261L32.735 21.6842C32.0231 22.1365 31.2029 22.3894 30.36 22.4163C29.517 22.4433 28.6823 22.2434 27.943 21.8375C27.2037 21.4317 26.587 20.8347 26.1572 20.109C25.7275 19.3833 25.5005 18.5556 25.5 17.7122Z" fill="#212529"/>
<path d="M40.2714 36.5597L40.2714 36.5598L46.5214 42.8098L47.375 43.6634V42.4563V6.25C47.375 5.28859 46.9931 4.36656 46.3133 3.68674C45.6334 3.00692 44.7114 2.625 43.75 2.625H6.25C5.28859 2.625 4.36656 3.00692 3.68674 3.68674C3.00692 4.36656 2.625 5.28859 2.625 6.25V31.25C2.625 32.2114 3.00692 33.1334 3.68674 33.8133C4.36656 34.4931 5.28859 34.875 6.25 34.875H36.2061C36.2062 34.875 36.2062 34.875 36.2063 34.875C37.7311 34.8754 39.1933 35.4814 40.2714 36.5597ZM47.6853 46.9781L47.6848 46.9777L38.7692 38.0621C38.7692 38.0621 38.7692 38.0621 38.7692 38.0621C38.0895 37.3822 37.1677 37.0002 36.2064 37H36.2063H6.25C4.72501 37 3.26247 36.3942 2.18414 35.3159C1.1058 34.2375 0.5 32.775 0.5 31.25V6.25C0.5 4.72501 1.1058 3.26247 2.18414 2.18414C3.26247 1.1058 4.72501 0.5 6.25 0.5H43.75C45.275 0.5 46.7375 1.1058 47.8159 2.18414C48.8942 3.26247 49.5 4.72501 49.5 6.25V46.228C49.5 46.2281 49.5 46.2281 49.5 46.2281C49.4999 46.4383 49.4375 46.6438 49.3207 46.8185C49.2038 46.9933 49.0377 47.1294 48.8434 47.2097C48.6491 47.29 48.4353 47.3109 48.2292 47.2697C48.023 47.2284 47.8337 47.127 47.6853 46.9781ZM13 17.7122L13 17.71C12.9949 16.6917 13.3204 15.6992 13.9277 14.8818C14.535 14.0643 15.3911 13.466 16.3676 13.1769C17.344 12.8877 18.3879 12.9233 19.3423 13.2782C20.252 13.6165 21.0335 14.2274 21.5812 15.0258V15.0352L21.6679 15.1625C23.4444 17.7735 24.0691 22.7422 19.5905 27.3837C19.4423 27.537 19.2393 27.6252 19.0261 27.6288C18.8129 27.6324 18.6071 27.5512 18.4538 27.403C18.3005 27.2548 18.2123 27.0518 18.2087 26.8386C18.2051 26.6254 18.2863 26.4196 18.4345 26.2663L18.4346 26.2662C19.7367 24.9187 20.5414 23.5591 20.977 22.2658L21.4281 20.9261L20.235 21.6842C19.5231 22.1365 18.7029 22.3894 17.86 22.4163C17.017 22.4433 16.1823 22.2434 15.443 21.8375C14.7037 21.4317 14.087 20.8347 13.6572 20.109C13.2275 19.3833 13.0005 18.5556 13 17.7122ZM25.5 17.7122L25.5 17.71C25.4949 16.6917 25.8204 15.6992 26.4277 14.8818C27.035 14.0643 27.8911 13.466 28.8676 13.1769C29.844 12.8877 30.8879 12.9233 31.8423 13.2782C32.752 13.6165 33.5336 14.2274 34.0812 15.0258V15.0352L34.1679 15.1625C35.9444 17.7735 36.5691 22.7422 32.0905 27.3837C31.9423 27.537 31.7393 27.6252 31.5261 27.6288C31.3129 27.6324 31.1071 27.5512 30.9538 27.403C30.8005 27.2548 30.7123 27.0518 30.7087 26.8386C30.7051 26.6254 30.7863 26.4196 30.9345 26.2663L30.9346 26.2662C32.2367 24.9187 33.0414 23.5591 33.477 22.2658L33.9281 20.9261L32.735 21.6842C32.0231 22.1365 31.2029 22.3894 30.36 22.4163C29.517 22.4433 28.6823 22.2434 27.943 21.8375C27.2037 21.4317 26.587 20.8347 26.1572 20.109C25.7275 19.3833 25.5005 18.5556 25.5 17.7122Z" stroke="black"/>
<path d="M40.2714 36.5597L40.2714 36.5598L46.5214 42.8098L47.375 43.6634V42.4563V6.25C47.375 5.28859 46.9931 4.36656 46.3133 3.68674C45.6334 3.00692 44.7114 2.625 43.75 2.625H6.25C5.28859 2.625 4.36656 3.00692 3.68674 3.68674C3.00692 4.36656 2.625 5.28859 2.625 6.25V31.25C2.625 32.2114 3.00692 33.1334 3.68674 33.8133C4.36656 34.4931 5.28859 34.875 6.25 34.875H36.2061C36.2062 34.875 36.2062 34.875 36.2063 34.875C37.7311 34.8754 39.1933 35.4814 40.2714 36.5597ZM47.6853 46.9781L47.6848 46.9777L38.7692 38.0621C38.7692 38.0621 38.7692 38.0621 38.7692 38.0621C38.0895 37.3822 37.1677 37.0002 36.2064 37H36.2063H6.25C4.72501 37 3.26247 36.3942 2.18414 35.3159C1.1058 34.2375 0.5 32.775 0.5 31.25V6.25C0.5 4.72501 1.1058 3.26247 2.18414 2.18414C3.26247 1.1058 4.72501 0.5 6.25 0.5H43.75C45.275 0.5 46.7375 1.1058 47.8159 2.18414C48.8942 3.26247 49.5 4.72501 49.5 6.25V46.228C49.5 46.2281 49.5 46.2281 49.5 46.2281C49.4999 46.4383 49.4375 46.6438 49.3207 46.8185C49.2038 46.9933 49.0377 47.1294 48.8434 47.2097C48.6491 47.29 48.4353 47.3109 48.2292 47.2697C48.023 47.2284 47.8337 47.127 47.6853 46.9781ZM13 17.7122L13 17.71C12.9949 16.6917 13.3204 15.6992 13.9277 14.8818C14.535 14.0643 15.3911 13.466 16.3676 13.1769C17.344 12.8877 18.3879 12.9233 19.3423 13.2782C20.252 13.6165 21.0335 14.2274 21.5812 15.0258V15.0352L21.6679 15.1625C23.4444 17.7735 24.0691 22.7422 19.5905 27.3837C19.4423 27.537 19.2393 27.6252 19.0261 27.6288C18.8129 27.6324 18.6071 27.5512 18.4538 27.403C18.3005 27.2548 18.2123 27.0518 18.2087 26.8386C18.2051 26.6254 18.2863 26.4196 18.4345 26.2663L18.4346 26.2662C19.7367 24.9187 20.5414 23.5591 20.977 22.2658L21.4281 20.9261L20.235 21.6842C19.5231 22.1365 18.7029 22.3894 17.86 22.4163C17.017 22.4433 16.1823 22.2434 15.443 21.8375C14.7037 21.4317 14.087 20.8347 13.6572 20.109C13.2275 19.3833 13.0005 18.5556 13 17.7122ZM25.5 17.7122L25.5 17.71C25.4949 16.6917 25.8204 15.6992 26.4277 14.8818C27.035 14.0643 27.8911 13.466 28.8676 13.1769C29.844 12.8877 30.8879 12.9233 31.8423 13.2782C32.752 13.6165 33.5336 14.2274 34.0812 15.0258V15.0352L34.1679 15.1625C35.9444 17.7735 36.5691 22.7422 32.0905 27.3837C31.9423 27.537 31.7393 27.6252 31.5261 27.6288C31.3129 27.6324 31.1071 27.5512 30.9538 27.403C30.8005 27.2548 30.7123 27.0518 30.7087 26.8386C30.7051 26.6254 30.7863 26.4196 30.9345 26.2663L30.9346 26.2662C32.2367 24.9187 33.0414 23.5591 33.477 22.2658L33.9281 20.9261L32.735 21.6842C32.0231 22.1365 31.2029 22.3894 30.36 22.4163C29.517 22.4433 28.6823 22.2434 27.943 21.8375C27.2037 21.4317 26.587 20.8347 26.1572 20.109C25.7275 19.3833 25.5005 18.5556 25.5 17.7122Z" stroke="black" stroke-opacity="0.2"/>
<path d="M40.2714 36.5597L40.2714 36.5598L46.5214 42.8098L47.375 43.6634V42.4563V6.25C47.375 5.28859 46.9931 4.36656 46.3133 3.68674C45.6334 3.00692 44.7114 2.625 43.75 2.625H6.25C5.28859 2.625 4.36656 3.00692 3.68674 3.68674C3.00692 4.36656 2.625 5.28859 2.625 6.25V31.25C2.625 32.2114 3.00692 33.1334 3.68674 33.8133C4.36656 34.4931 5.28859 34.875 6.25 34.875H36.2061C36.2062 34.875 36.2062 34.875 36.2063 34.875C37.7311 34.8754 39.1933 35.4814 40.2714 36.5597ZM47.6853 46.9781L47.6848 46.9777L38.7692 38.0621C38.7692 38.0621 38.7692 38.0621 38.7692 38.0621C38.0895 37.3822 37.1677 37.0002 36.2064 37H36.2063H6.25C4.72501 37 3.26247 36.3942 2.18414 35.3159C1.1058 34.2375 0.5 32.775 0.5 31.25V6.25C0.5 4.72501 1.1058 3.26247 2.18414 2.18414C3.26247 1.1058 4.72501 0.5 6.25 0.5H43.75C45.275 0.5 46.7375 1.1058 47.8159 2.18414C48.8942 3.26247 49.5 4.72501 49.5 6.25V46.228C49.5 46.2281 49.5 46.2281 49.5 46.2281C49.4999 46.4383 49.4375 46.6438 49.3207 46.8185C49.2038 46.9933 49.0377 47.1294 48.8434 47.2097C48.6491 47.29 48.4353 47.3109 48.2292 47.2697C48.023 47.2284 47.8337 47.127 47.6853 46.9781ZM13 17.7122L13 17.71C12.9949 16.6917 13.3204 15.6992 13.9277 14.8818C14.535 14.0643 15.3911 13.466 16.3676 13.1769C17.344 12.8877 18.3879 12.9233 19.3423 13.2782C20.252 13.6165 21.0335 14.2274 21.5812 15.0258V15.0352L21.6679 15.1625C23.4444 17.7735 24.0691 22.7422 19.5905 27.3837C19.4423 27.537 19.2393 27.6252 19.0261 27.6288C18.8129 27.6324 18.6071 27.5512 18.4538 27.403C18.3005 27.2548 18.2123 27.0518 18.2087 26.8386C18.2051 26.6254 18.2863 26.4196 18.4345 26.2663L18.4346 26.2662C19.7367 24.9187 20.5414 23.5591 20.977 22.2658L21.4281 20.9261L20.235 21.6842C19.5231 22.1365 18.7029 22.3894 17.86 22.4163C17.017 22.4433 16.1823 22.2434 15.443 21.8375C14.7037 21.4317 14.087 20.8347 13.6572 20.109C13.2275 19.3833 13.0005 18.5556 13 17.7122ZM25.5 17.7122L25.5 17.71C25.4949 16.6917 25.8204 15.6992 26.4277 14.8818C27.035 14.0643 27.8911 13.466 28.8676 13.1769C29.844 12.8877 30.8879 12.9233 31.8423 13.2782C32.752 13.6165 33.5336 14.2274 34.0812 15.0258V15.0352L34.1679 15.1625C35.9444 17.7735 36.5691 22.7422 32.0905 27.3837C31.9423 27.537 31.7393 27.6252 31.5261 27.6288C31.3129 27.6324 31.1071 27.5512 30.9538 27.403C30.8005 27.2548 30.7123 27.0518 30.7087 26.8386C30.7051 26.6254 30.7863 26.4196 30.9345 26.2663L30.9346 26.2662C32.2367 24.9187 33.0414 23.5591 33.477 22.2658L33.9281 20.9261L32.735 21.6842C32.0231 22.1365 31.2029 22.3894 30.36 22.4163C29.517 22.4433 28.6823 22.2434 27.943 21.8375C27.2037 21.4317 26.587 20.8347 26.1572 20.109C25.7275 19.3833 25.5005 18.5556 25.5 17.7122Z" stroke="black" stroke-opacity="0.2"/>
<path d="M40.2714 36.5597L40.2714 36.5598L46.5214 42.8098L47.375 43.6634V42.4563V6.25C47.375 5.28859 46.9931 4.36656 46.3133 3.68674C45.6334 3.00692 44.7114 2.625 43.75 2.625H6.25C5.28859 2.625 4.36656 3.00692 3.68674 3.68674C3.00692 4.36656 2.625 5.28859 2.625 6.25V31.25C2.625 32.2114 3.00692 33.1334 3.68674 33.8133C4.36656 34.4931 5.28859 34.875 6.25 34.875H36.2061C36.2062 34.875 36.2062 34.875 36.2063 34.875C37.7311 34.8754 39.1933 35.4814 40.2714 36.5597ZM47.6853 46.9781L47.6848 46.9777L38.7692 38.0621C38.7692 38.0621 38.7692 38.0621 38.7692 38.0621C38.0895 37.3822 37.1677 37.0002 36.2064 37H36.2063H6.25C4.72501 37 3.26247 36.3942 2.18414 35.3159C1.1058 34.2375 0.5 32.775 0.5 31.25V6.25C0.5 4.72501 1.1058 3.26247 2.18414 2.18414C3.26247 1.1058 4.72501 0.5 6.25 0.5H43.75C45.275 0.5 46.7375 1.1058 47.8159 2.18414C48.8942 3.26247 49.5 4.72501 49.5 6.25V46.228C49.5 46.2281 49.5 46.2281 49.5 46.2281C49.4999 46.4383 49.4375 46.6438 49.3207 46.8185C49.2038 46.9933 49.0377 47.1294 48.8434 47.2097C48.6491 47.29 48.4353 47.3109 48.2292 47.2697C48.023 47.2284 47.8337 47.127 47.6853 46.9781ZM13 17.7122L13 17.71C12.9949 16.6917 13.3204 15.6992 13.9277 14.8818C14.535 14.0643 15.3911 13.466 16.3676 13.1769C17.344 12.8877 18.3879 12.9233 19.3423 13.2782C20.252 13.6165 21.0335 14.2274 21.5812 15.0258V15.0352L21.6679 15.1625C23.4444 17.7735 24.0691 22.7422 19.5905 27.3837C19.4423 27.537 19.2393 27.6252 19.0261 27.6288C18.8129 27.6324 18.6071 27.5512 18.4538 27.403C18.3005 27.2548 18.2123 27.0518 18.2087 26.8386C18.2051 26.6254 18.2863 26.4196 18.4345 26.2663L18.4346 26.2662C19.7367 24.9187 20.5414 23.5591 20.977 22.2658L21.4281 20.9261L20.235 21.6842C19.5231 22.1365 18.7029 22.3894 17.86 22.4163C17.017 22.4433 16.1823 22.2434 15.443 21.8375C14.7037 21.4317 14.087 20.8347 13.6572 20.109C13.2275 19.3833 13.0005 18.5556 13 17.7122ZM25.5 17.7122L25.5 17.71C25.4949 16.6917 25.8204 15.6992 26.4277 14.8818C27.035 14.0643 27.8911 13.466 28.8676 13.1769C29.844 12.8877 30.8879 12.9233 31.8423 13.2782C32.752 13.6165 33.5336 14.2274 34.0812 15.0258V15.0352L34.1679 15.1625C35.9444 17.7735 36.5691 22.7422 32.0905 27.3837C31.9423 27.537 31.7393 27.6252 31.5261 27.6288C31.3129 27.6324 31.1071 27.5512 30.9538 27.403C30.8005 27.2548 30.7123 27.0518 30.7087 26.8386C30.7051 26.6254 30.7863 26.4196 30.9345 26.2663L30.9346 26.2662C32.2367 24.9187 33.0414 23.5591 33.477 22.2658L33.9281 20.9261L32.735 21.6842C32.0231 22.1365 31.2029 22.3894 30.36 22.4163C29.517 22.4433 28.6823 22.2434 27.943 21.8375C27.2037 21.4317 26.587 20.8347 26.1572 20.109C25.7275 19.3833 25.5005 18.5556 25.5 17.7122Z" stroke="black" stroke-opacity="0.2"/>
</svg>
